<svg version="1.1" id="Layer_1" xmlns="http://www.w3.org/2000/svg" xmlns:xlink="http://www.w3.org/1999/xlink" x="0px" y="0px" height="1em" width="1em"  viewBox="0 0 122.88 95.57" style="enable-background:new 0 0 122.88 95.57" xml:space="preserve">
    <style type="text/css">
        .st0{fill-rule:evenodd;clip-rule:evenodd;}
    </style>
    <g>
        <path class="st0" d="M30.45,57.96h-0.93c0-7.62-2.85-14.28-8.54-19.97c-5.69-5.69-12.35-8.54-19.97-8.54v-0.93 c7.62,0,14.28-2.85,19.97-8.55C26.67,14.25,29.52,7.59,29.52,0h0.93c0,7.62,2.85,14.28,8.54,19.97c5.69,5.69,12.35,8.54,19.97,8.54 v0.93c-7.62,0-14.28,2.85-19.97,8.54C33.3,43.68,30.45,50.34,30.45,57.96L30.45,57.96z M13.51,92.85h-0.43 c0-3.49-1.31-6.55-3.92-9.16C6.55,81.08,3.49,79.77,0,79.77v-0.43c3.49,0,6.55-1.31,9.16-3.92c2.61-2.62,3.92-5.67,3.92-9.15h0.43 c0,3.49,1.31,6.55,3.92,9.16c2.61,2.61,5.66,3.92,9.16,3.92v0.43c-3.49,0-6.55,1.31-9.16,3.92C14.81,86.3,13.51,89.36,13.51,92.85 L13.51,92.85z M68.37,95.57h-0.43c0-3.49-1.31-6.55-3.92-9.16c-2.61-2.61-5.66-3.92-9.16-3.92v-0.43c3.49,0,6.55-1.31,9.16-3.92 c2.61-2.62,3.92-5.67,3.92-9.15h0.43c0,3.49,1.31,6.55,3.92,9.16c2.61,2.61,5.66,3.92,9.16,3.92v0.43c-3.49,0-6.55,1.31-9.16,3.92 C69.67,89.02,68.37,92.07,68.37,95.57L68.37,95.57z M98.95,64.57h-0.78c0-6.39-2.39-11.98-7.17-16.76 c-4.78-4.78-10.36-7.17-16.76-7.17v-0.78c6.39,0,11.98-2.39,16.76-7.18c4.78-4.79,7.17-10.38,7.17-16.75h0.78 c0,6.39,2.39,11.98,7.17,16.76c4.78,4.78,10.36,7.17,16.76,7.17v0.78c-6.39,0-11.98,2.39-16.76,7.17 C101.34,52.59,98.95,58.18,98.95,64.57L98.95,64.57z"/>
    </g>
</svg>